<svg width="21" height="20" viewBox="0 0 21 20" fill="none" xmlns="http://www.w3.org/2000/svg">
<path fill-rule="evenodd" clip-rule="evenodd" d="M11.6614 20H9.33859C5.71974 20 3.91029 20 2.67648 18.9882C1.44265 17.9764 1.18676 16.2827 0.674979 12.8952L0.38227 10.9579C-0.0161417 8.3208 -0.215348 7.00229 0.352135 5.87495C0.919618 4.7476 2.1275 4.06234 4.54325 2.69181L5.99733 1.86687C8.19109 0.62229 9.28798 0 10.5 0C11.712 0 12.8089 0.62229 15.0026 1.86687L16.4568 2.69181C18.8725 4.06234 20.0804 4.7476 20.6478 5.87495C21.2154 7.00229 21.0162 8.3208 20.6177 10.9579L20.3251 12.8952C19.8132 16.2827 19.5573 17.9764 18.3235 18.9882C17.0897 20 15.2802 20 11.6614 20ZM6.71744 13.5532C6.97644 13.2204 7.46964 13.1506 7.81904 13.3973C8.58385 13.9371 9.50691 14.2498 10.5001 14.2498C11.4933 14.2498 12.4164 13.9371 13.1812 13.3973C13.5306 13.1506 14.0238 13.2204 14.2827 13.5532C14.5418 13.8859 14.4685 14.3557 14.119 14.6023C13.098 15.3231 11.8494 15.7498 10.5001 15.7498C9.15085 15.7498 7.90219 15.3231 6.88116 14.6023C6.53175 14.3557 6.45846 13.8859 6.71744 13.5532Z" fill="#022A72"/>
</svg>
