<svg width="26" height="20" viewBox="0 0 26 20" fill="none" xmlns="http://www.w3.org/2000/svg">
<path fill-rule="evenodd" clip-rule="evenodd" d="M14.993 0C20.7958 0 25.5 4.47715 25.5 10C25.5 15.5228 20.7958 20 14.993 20C12.1433 20 9.55856 18.9203 7.6658 17.1672L9.29409 15.5746C10.7662 16.938 12.7766 17.7778 14.993 17.7778C19.5063 17.7778 23.1651 14.2955 23.1651 10C23.1651 5.70445 19.5063 2.22222 14.993 2.22222C10.4796 2.22222 6.82082 5.70445 6.82082 10C6.82082 10.2105 6.82961 10.4191 6.84685 10.6254L9.15571 8.42865L10.8067 10L5.65337 14.9047L0.5 10L2.15102 8.42865L4.50932 10.6727C4.4938 10.4504 4.48592 10.2261 4.48592 10C4.48592 4.47715 9.19008 0 14.993 0ZM16.1604 5.55556V10.5111L19.1374 12.4111L17.8532 14.2556L13.8255 11.7111V5.55556H16.1604Z" fill="#8E8E93"/>
</svg>
